Coordinates
version=1
nRows=24
nColumns=38
inDegrees=no

Units are S.I. units (second, meters, Newtons, ...)
If the header above contains a line with 'inDegrees', this indicates whether rotational values are in degrees (yes) or radians (no).

endheader
time	pelvis_tilt	pelvis_list	pelvis_rotation	pelvis_tx	pelvis_ty	pelvis_tz	hip_flexion_r	hip_adduction_r	hip_rotation_r	knee_angle_r	ankle_angle_r	subtalar_angle_r	mtp_angle_r	hip_flexion_l	hip_adduction_l	hip_rotation_l	knee_angle_l	ankle_angle_l	subtalar_angle_l	mtp_angle_l	lumbar_extension	lumbar_bending	lumbar_rotation	arm_flex_r	arm_add_r	arm_rot_r	elbow_flex_r	pro_sup_r	wrist_flex_r	wrist_dev_r	arm_flex_l	arm_add_l	arm_rot_l	elbow_flex_l	pro_sup_l	wrist_flex_l	wrist_dev_l
1.48	-0.1376	-0.043932	-0.0721105	0.994945	1.02122	-0.349084	0.0145848	0.123553	0.0411508	-1.5954	-0.089158	0.0519412	3.09509e-06	0.753041	-0.0372725	-0.211541	-0.530292	0.139219	0.0499489	-5.31964e-05	-0.0962795	0.0155752	0.257802	-0.392699	-0.327192	-0.16582	2.0298	2.08129	-0.00659817	0.0450029	-0.852745	-0.131152	-0.332865	2.08704	1.8655	0.0627007	0.0400454
1.49	-0.137508	-0.0370282	-0.0694188	0.994747	1.01571	-0.349679	0.0661092	0.0960457	0.00563112	-1.70844	-0.0674657	0.0519412	3.09509e-06	0.736343	-0.0315492	-0.22052	-0.568385	0.141514	0.0499489	-5.31964e-05	-0.0944992	0.00618946	0.241332	-0.414972	-0.325042	-0.177944	1.96364	2.07376	-0.00659817	0.0450029	-0.819378	-0.130038	-0.327748	2.0635	1.86244	0.0627007	0.0400454
1.5	-0.137455	-0.0281482	-0.0665461	0.994405	1.00934	-0.350348	0.120587	0.0661382	-0.0246536	-1.81351	-0.0444139	0.0519412	3.09509e-06	0.720989	-0.0231889	-0.227417	-0.617962	0.151105	0.0499489	-5.31964e-05	-0.0929055	-0.0052784	0.221428	-0.435005	-0.323829	-0.188008	1.89581	2.07212	-0.00659817	0.0450029	-0.782677	-0.131396	-0.319308	2.03561	1.85765	0.0627007	0.0400454
1.51	-0.137309	-0.0174581	-0.0632849	0.993897	1.00237	-0.351039	0.178125	0.0360108	-0.047756	-1.90953	-0.0206477	0.0519412	3.09509e-06	0.705944	-0.0115498	-0.231422	-0.675523	0.170552	0.0499489	-5.31964e-05	-0.0918726	-0.0187337	0.198074	-0.452697	-0.323432	-0.196067	1.82819	2.07888	-0.00659817	0.0450029	-0.742831	-0.13527	-0.30789	2.00446	1.8509	0.0627007	0.0400454
1.52	-0.136912	-0.00541014	-0.059511	0.993185	0.995334	-0.351657	0.238884	0.00773623	-0.0628057	-1.99545	0.00309053	0.0519412	3.09509e-06	0.689648	0.00346664	-0.232126	-0.736631	0.201166	0.0499489	-5.31964e-05	-0.0916301	-0.0337704	0.171578	-0.468438	-0.323553	-0.20262	1.76299	2.09518	-0.00659817	0.0450029	-0.700057	-0.141623	-0.293956	1.97172	1.84235	0.0627007	0.0400454
1.53	-0.136234	0.00727542	-0.0552476	0.992249	0.988815	-0.352134	0.302883	-0.0167821	-0.0699368	-2.07003	0.0261187	0.0519412	3.09509e-06	0.670091	0.0212296	-0.229522	-0.796159	0.242343	0.0499489	-5.31964e-05	-0.0922435	-0.049507	0.14266	-0.483116	-0.323829	-0.208509	1.70261	2.12015	-0.00659817	0.0450029	-0.654744	-0.150193	-0.278125	1.93959	1.8328	0.0627007	0.0400454
1.54	-0.135315	0.0195438	-0.0507545	0.991131	0.983196	-0.352446	0.369848	-0.0358773	-0.0700663	-2.13194	0.0479098	0.0519412	3.09509e-06	0.645086	0.0404334	-0.223979	-0.84881	0.291375	0.0499489	-5.31964e-05	-0.0935663	-0.0646151	0.112443	-0.498024	-0.323958	-0.214747	1.64956	2.15073	-0.00659817	0.0450029	-0.607598	-0.160381	-0.261221	1.91071	1.8236	0.0627007	0.0400454
1.55	-0.134231	0.0301273	-0.0465621	0.989929	0.978648	-0.352623	0.4391	-0.048213	-0.0646273	-2.17982	0.0681167	0.0519412	3.09509e-06	0.612612	0.0593133	-0.216229	-0.889795	0.343774	0.0499489	-5.31964e-05	-0.0952505	-0.0774705	0.0823583	-0.514657	-0.32379	-0.222297	1.60617	2.18206	-0.00659817	0.0450029	-0.559727	-0.171202	-0.24428	1.88795	1.8164	0.0627007	0.0400454
1.56	-0.133114	0.0379042	-0.0434029	0.988794	0.975324	-0.352714	0.509532	-0.0528931	-0.0553281	-2.21244	0.0865373	0.0519412	3.09509e-06	0.571101	0.0759313	-0.207348	-0.915409	0.3939	0.0499489	-5.31964e-05	-0.0968333	-0.0863476	0.0539573	-0.534444	-0.32336	-0.231865	1.57428	2.20834	-0.00659817	0.0450029	-0.512614	-0.181364	-0.228485	1.87408	1.81283	0.0627007	0.0400454
1.57	-0.13202	0.0418171	-0.0421326	0.987926	0.973421	-0.352729	0.57971	-0.0496271	-0.0439525	-2.2289	0.103058	0.0519412	3.09509e-06	0.519717	0.0885955	-0.198722	-0.923358	0.435671	0.0499489	-5.31964e-05	-0.0977466	-0.0898386	0.0286653	-0.558493	-0.322849	-0.243767	1.55501	2.22407	-0.00659817	0.0450029	-0.46797	-0.189463	-0.215004	1.87141	1.81397	0.0627007	0.0400454
1.58	-0.130988	0.0410885	-0.0435381	0.987563	0.973076	-0.35266	0.648044	-0.0388071	-0.0322272	-2.22873	0.117605	0.0519412	3.09509e-06	0.458454	0.0961367	-0.191881	-0.912829	0.463211	0.0499489	-5.31964e-05	-0.0973966	-0.087079	0.00756919	-0.587423	-0.322488	-0.257909	1.54853	2.22535	-0.00659817	0.0450029	-0.427507	-0.194259	-0.204759	1.88144	1.81997	0.0627007	0.0400454
1.59	-0.130177	0.0355661	-0.048147	0.9879	0.97428	-0.352529	0.712959	-0.0214582	-0.0217178	-2.21199	0.130133	0.0519412	3.09509e-06	0.388125	0.0980345	-0.188228	-0.884382	0.471422	0.0499489	-5.31964e-05	-0.0952813	-0.0777882	-0.008723	-0.621294	-0.322468	-0.273863	1.55412	2.21052	-0.00659817	0.0450029	-0.392686	-0.194939	-0.198199	1.90464	1.82984	0.0627007	0.0400454
1.6	-0.129828	0.0256611	-0.0561268	0.989052	0.976897	-0.352356	0.773081	0.000871822	-0.0136949	-2.17919	0.14064	0.0519412	3.09509e-06	0.310321	0.0945071	-0.188753	-0.839777	0.456511	0.0499489	-5.31964e-05	-0.0910232	-0.0623579	-0.0201468	-0.659645	-0.322858	-0.291004	1.57029	2.18031	-0.00659817	0.0450029	-0.364501	-0.191298	-0.195166	1.9404	1.84151	0.0627007	0.0400454
1.61	-0.130309	0.0122114	-0.0672591	0.991046	0.980708	-0.352131	0.827332	0.0263033	-0.00898422	-2.13128	0.149201	0.0519412	3.09509e-06	0.227289	0.0864925	-0.1938	-0.781834	0.416458	0.0499489	-5.31964e-05	-0.0844497	-0.0418624	-0.0271503	-0.701571	-0.323564	-0.308646	1.59506	2.13737	-0.00659817	0.0450029	-0.343366	-0.183794	-0.194924	1.98719	1.85223	0.0627007	0.0400454
1.62	-0.131844	-0.00359874	-0.0809598	0.993842	0.985435	-0.351813	0.874998	0.0528672	-0.00784275	-2.06945	0.155988	0.0519412	3.09509e-06	0.141851	0.0754982	-0.202906	-0.714316	0.351368	0.0499489	-5.31964e-05	-0.0755478	-0.0179353	-0.0305924	-0.745818	-0.324333	-0.326143	1.6262	2.0856	-0.00659817	0.0450029	-0.329105	-0.173454	-0.196328	2.04282	1.85923	0.0627007	0.0400454
1.63	-0.134561	-0.0202883	-0.0963778	0.997303	0.990743	-0.351361	0.915652	0.0787739	-0.00989676	-1.99501	0.161247	0.0519412	3.09509e-06	0.0571779	0.0633443	-0.214764	-0.641842	0.263653	0.0499489	-5.31964e-05	-0.0645416	0.00747192	-0.0315853	-0.790882	-0.324805	-0.342925	1.66149	2.02929	-0.00659817	0.0450029	-0.321029	-0.161682	-0.198086	2.10472	1.86039	0.0627007	0.0400454
1.64	-0.138443	-0.0363337	-0.112529	1.0012	0.996287	-0.350755	0.949032	0.102624	-0.0141717	-1.90919	0.165242	0.0519412	3.09509e-06	-0.0234787	0.0518943	-0.22737	-0.56973	0.157963	0.0499489	-5.31964e-05	-0.0519278	0.0323232	-0.031314	-0.835115	-0.32459	-0.358508	1.69886	1.97252	-0.00659817	0.0450029	-0.318075	-0.15001	-0.199015	2.17021	1.85484	0.0627007	0.0400454
1.65	-0.143277	-0.0503982	-0.128439	1.00525	1.00177	-0.350013	0.974884	0.12355	-0.0192345	-1.8131	0.16817	0.0519412	3.09509e-06	-0.0971202	0.0427571	-0.238349	-0.503681	0.0408379	0.0499489	-5.31964e-05	-0.0384856	0.0547829	-0.0308562	-0.876841	-0.323358	-0.372481	1.73655	1.91866	-0.00659817	0.0450029	-0.318978	-0.139858	-0.198241	2.23666	1.84315	0.0627007	0.0400454
1.66	-0.148532	-0.0614482	-0.143276	1.00914	1.00699	-0.349202	0.992848	0.141268	-0.0234339	-1.70768	0.170054	0.0519412	3.09509e-06	-0.161312	0.0369899	-0.245445	-0.449326	-0.0799095	0.0499489	-5.31964e-05	-0.0252167	0.0735208	-0.0310365	-0.914488	-0.320912	-0.384498	1.77311	1.87005	-0.00659817	0.0450029	-0.322442	-0.132332	-0.195298	2.3016	1.82722	0.0627007	0.0400454
1.67	-0.153608	-0.0690878	-0.156436	1.01261	1.01178	-0.348404	1.0024	0.155987	-0.0251857	-1.5938	0.170628	0.0519412	3.09509e-06	-0.214477	0.034969	-0.247069	-0.411741	-0.196024	0.0499489	-5.31964e-05	-0.01333	0.0878046	-0.0323509	-0.946707	-0.317233	-0.394287	1.80752	1.8281	-0.00659817	0.0450029	-0.3273	-0.128091	-0.190149	2.36271	1.80988	0.0627007	0.0400454
1.68	-0.15781	-0.0735055	-0.167577	1.01551	1.01604	-0.34769	1.00296	0.168273	-0.023273	-1.47246	0.169265	0.0519412	3.09509e-06	-0.255948	0.0362782	-0.242818	-0.394977	-0.299742	0.0499489	-5.31964e-05	-0.00404858	0.0976079	-0.0349403	-0.972481	-0.312494	-0.401668	1.83915	1.79325	-0.00659817	0.0450029	-0.332645	-0.127297	-0.183122	2.41789	1.79415	0.0627007	0.0400454
1.69	-0.160472	-0.0753869	-0.17662	1.01774	1.01974	-0.347096	0.994097	0.178855	-0.0170806	-1.34505	0.164994	0.0519412	3.09509e-06	-0.285893	0.0397421	-0.233745	-0.401716	-0.384747	0.0499489	-5.31964e-05	0.00157924	0.103542	-0.038634	-0.991208	-0.307017	-0.406585	1.86778	1.7652	-0.00659817	0.0450029	-0.337899	-0.129655	-0.174791	2.46525	1.78264	0.0627007	0.0400454
1.7	-0.161098	-0.0757527	-0.183702	1.01931	1.02285	-0.346602	0.975792	0.188434	-0.00672582	-1.2136	0.156656	0.0519412	3.09509e-06	-0.305101	0.0435907	-0.2223	-0.433098	-0.446993	0.0499489	-5.31964e-05	0.00286514	0.106666	-0.0430272	-1.00275	-0.301224	-0.409129	1.89352	1.74317	-0.00659817	0.0450029	-0.342832	-0.134527	-0.165836	2.5032	1.77695	0.0627007	0.0400454
1.71	-0.159482	-0.0757107	-0.189099	1.02032	1.02534	-0.346147	0.948634	0.197531	0.00692176	-1.08105	0.143216	0.0519412	3.09509e-06	-0.314716	0.0457209	-0.21189	-0.488709	-0.48518	0.0499489	-5.31964e-05	-0.000391534	0.108244	-0.0475696	-1.00741	-0.295559	-0.409555	1.91675	1.72614	-0.00659817	0.0450029	-0.347517	-0.141099	-0.156881	2.53051	1.7774	0.0627007	0.0400454
